<?xml version="1.0" encoding="UTF-8" standalone="no"?>
<!DOCTYPE svg PUBLIC "-//W3C//DTD SVG 1.1//EN"
 "http://www.w3.org/Graphics/SVG/1.1/DTD/svg11.dtd">
<!-- Generated by graphviz version 2.38.0 (20140413.2041)
 -->
<!-- Title: *( &#45;&gt;( X( &#39;A&#39;, &#39;B&#39; ), &#39;C&#39;, X( &#39;F&#39;, &#39;D&#39; ) ), &#39;E&#39; ) Pages: 1 -->
<svg width="2222pt" height="366pt"
 viewBox="0.00 0.00 2222.00 366.00" xmlns="http://www.w3.org/2000/svg" xmlns:xlink="http://www.w3.org/1999/xlink">
<g id="graph0" class="graph" transform="scale(1 1) rotate(0) translate(4 362)">
<title>*( &#45;&gt;( X( &#39;A&#39;, &#39;B&#39; ), &#39;C&#39;, X( &#39;F&#39;, &#39;D&#39; ) ), &#39;E&#39; )</title>
<!-- 3027383396000 -->
<g id="node1" class="node"><title>3027383396000</title>
<polygon fill="none" stroke="black" points="54,-181 0,-181 0,-145 54,-145 54,-181"/>
<text text-anchor="middle" x="27" y="-159.9" font-family="Times New Roman,serif" font-size="12.00">A</text>
</g>
<!-- 3027383396240 -->
<g id="node20" class="node"><title>3027383396240</title>
<ellipse fill="none" stroke="black" cx="117" cy="-163" rx="27" ry="27"/>
</g>
<!-- 3027383396000&#45;&gt;3027383396240 -->
<g id="edge1" class="edge"><title>3027383396000&#45;&gt;3027383396240</title>
<path fill="none" stroke="black" d="M54.4029,-163C62.3932,-163 71.3106,-163 79.8241,-163"/>
<polygon fill="black" stroke="black" points="79.919,-166.5 89.919,-163 79.919,-159.5 79.919,-166.5"/>
</g>
<!-- 3027383395568 -->
<g id="node28" class="node"><title>3027383395568</title>
<ellipse fill="none" stroke="black" cx="207" cy="-309" rx="27" ry="27"/>
</g>
<!-- 3027383396000&#45;&gt;3027383395568 -->
<g id="edge2" class="edge"><title>3027383396000&#45;&gt;3027383395568</title>
<path fill="none" stroke="black" d="M50.1839,-181.196C82.3658,-207.592 142.015,-256.518 177.442,-285.576"/>
<polygon fill="black" stroke="black" points="175.518,-288.524 185.469,-292.16 179.957,-283.112 175.518,-288.524"/>
</g>
<!-- 3027383396192 -->
<g id="node2" class="node"><title>3027383396192</title>
<polygon fill="none" stroke="black" points="1854,-128 1800,-128 1800,-92 1854,-92 1854,-128"/>
<text text-anchor="middle" x="1827" y="-106.9" font-family="Times New Roman,serif" font-size="12.00">B</text>
</g>
<!-- 3027383396192&#45;&gt;3027383396240 -->
<g id="edge4" class="edge"><title>3027383396192&#45;&gt;3027383396240</title>
<path fill="none" stroke="black" d="M1799.76,-110C1765.04,-110 1701.93,-110 1648,-110 296,-110 296,-110 296,-110 243.539,-110 185.861,-131.409 150.789,-147.013"/>
<polygon fill="black" stroke="black" points="149.168,-143.906 141.52,-151.238 152.071,-150.275 149.168,-143.906"/>
</g>
<!-- 3027383467696 -->
<g id="node29" class="node"><title>3027383467696</title>
<ellipse fill="none" stroke="black" cx="1917" cy="-122" rx="27" ry="27"/>
</g>
<!-- 3027383396192&#45;&gt;3027383467696 -->
<g id="edge5" class="edge"><title>3027383396192&#45;&gt;3027383467696</title>
<path fill="none" stroke="black" d="M1854.4,-113.6C1862.47,-114.7 1871.47,-115.928 1880.05,-117.098"/>
<polygon fill="black" stroke="black" points="1879.84,-120.601 1890.22,-118.485 1880.79,-113.666 1879.84,-120.601"/>
</g>
<!-- 3027383395904 -->
<g id="node3" class="node"><title>3027383395904</title>
<polygon fill="none" stroke="black" points="414,-261 360,-261 360,-225 414,-225 414,-261"/>
<text text-anchor="middle" x="387" y="-239.9" font-family="Times New Roman,serif" font-size="12.00">C</text>
</g>
<!-- 3027383397728 -->
<g id="node24" class="node"><title>3027383397728</title>
<ellipse fill="none" stroke="black" cx="477" cy="-254" rx="27" ry="27"/>
</g>
<!-- 3027383395904&#45;&gt;3027383397728 -->
<g id="edge6" class="edge"><title>3027383395904&#45;&gt;3027383397728</title>
<path fill="none" stroke="black" d="M414.403,-246.3C422.393,-247.299 431.311,-248.414 439.824,-249.478"/>
<polygon fill="black" stroke="black" points="439.562,-252.972 449.919,-250.74 440.43,-246.026 439.562,-252.972"/>
</g>
<!-- 3027383464000 -->
<g id="node4" class="node"><title>3027383464000</title>
<polygon fill="black" stroke="black" points="594,-282 540,-282 540,-246 594,-246 594,-282"/>
</g>
<!-- 3027383397632 -->
<g id="node19" class="node"><title>3027383397632</title>
<ellipse fill="none" stroke="black" cx="657" cy="-285" rx="27" ry="27"/>
</g>
<!-- 3027383464000&#45;&gt;3027383397632 -->
<g id="edge31" class="edge"><title>3027383464000&#45;&gt;3027383397632</title>
<path fill="none" stroke="black" d="M594.403,-270.301C602.627,-272.263 611.832,-274.46 620.569,-276.545"/>
<polygon fill="black" stroke="black" points="619.983,-280.003 630.523,-278.92 621.608,-273.195 619.983,-280.003"/>
</g>
<!-- 3027383464576 -->
<g id="node5" class="node"><title>3027383464576</title>
<polygon fill="black" stroke="black" points="954,-224 900,-224 900,-188 954,-188 954,-224"/>
</g>
<!-- 3027383464816 -->
<g id="node25" class="node"><title>3027383464816</title>
<ellipse fill="none" stroke="black" cx="1017" cy="-201" rx="27" ry="27"/>
</g>
<!-- 3027383464576&#45;&gt;3027383464816 -->
<g id="edge33" class="edge"><title>3027383464576&#45;&gt;3027383464816</title>
<path fill="none" stroke="black" d="M954.403,-204.5C962.393,-204.046 971.311,-203.539 979.824,-203.055"/>
<polygon fill="black" stroke="black" points="980.134,-206.544 989.919,-202.482 979.737,-199.555 980.134,-206.544"/>
</g>
<!-- 3027383466304 -->
<g id="node6" class="node"><title>3027383466304</title>
<polygon fill="black" stroke="black" points="1314,-73 1260,-73 1260,-37 1314,-37 1314,-73"/>
</g>
<!-- 3027383381920 -->
<g id="node26" class="node"><title>3027383381920</title>
<ellipse fill="none" stroke="black" cx="1377" cy="-55" rx="27" ry="27"/>
</g>
<!-- 3027383466304&#45;&gt;3027383381920 -->
<g id="edge28" class="edge"><title>3027383466304&#45;&gt;3027383381920</title>
<path fill="none" stroke="black" d="M1314.4,-55C1322.39,-55 1331.31,-55 1339.82,-55"/>
<polygon fill="black" stroke="black" points="1339.92,-58.5001 1349.92,-55 1339.92,-51.5001 1339.92,-58.5001"/>
</g>
<!-- 3027383466496 -->
<g id="node7" class="node"><title>3027383466496</title>
<polygon fill="black" stroke="black" points="1314,-228 1260,-228 1260,-192 1314,-192 1314,-228"/>
</g>
<!-- 3027383466784 -->
<g id="node32" class="node"><title>3027383466784</title>
<ellipse fill="orange" stroke="black" cx="1377" cy="-201" rx="27" ry="27"/>
</g>
<!-- 3027383466496&#45;&gt;3027383466784 -->
<g id="edge29" class="edge"><title>3027383466496&#45;&gt;3027383466784</title>
<path fill="none" stroke="black" d="M1314.4,-207.3C1322.39,-206.483 1331.31,-205.571 1339.82,-204.7"/>
<polygon fill="black" stroke="black" points="1340.33,-208.167 1349.92,-203.667 1339.61,-201.203 1340.33,-208.167"/>
</g>
<!-- 3027383397920 -->
<g id="node8" class="node"><title>3027383397920</title>
<polygon fill="black" stroke="black" points="324,-335 270,-335 270,-299 324,-299 324,-335"/>
</g>
<!-- 3027383467312 -->
<g id="node31" class="node"><title>3027383467312</title>
<ellipse fill="none" stroke="black" cx="387" cy="-325" rx="27" ry="27"/>
</g>
<!-- 3027383397920&#45;&gt;3027383467312 -->
<g id="edge35" class="edge"><title>3027383397920&#45;&gt;3027383467312</title>
<path fill="none" stroke="black" d="M324.403,-319.4C332.393,-320.127 341.311,-320.937 349.824,-321.711"/>
<polygon fill="black" stroke="black" points="349.643,-325.209 359.919,-322.629 350.277,-318.238 349.643,-325.209"/>
</g>
<!-- 3027383396336 -->
<g id="node9" class="node"><title>3027383396336</title>
<polygon fill="black" stroke="black" points="1674,-73 1620,-73 1620,-37 1674,-37 1674,-73"/>
</g>
<!-- 3027383395760 -->
<g id="node18" class="node"><title>3027383395760</title>
<ellipse fill="none" stroke="black" cx="1737" cy="-55" rx="27" ry="27"/>
</g>
<!-- 3027383396336&#45;&gt;3027383395760 -->
<g id="edge30" class="edge"><title>3027383396336&#45;&gt;3027383395760</title>
<path fill="none" stroke="black" d="M1674.4,-55C1682.39,-55 1691.31,-55 1699.82,-55"/>
<polygon fill="black" stroke="black" points="1699.92,-58.5001 1709.92,-55 1699.92,-51.5001 1699.92,-58.5001"/>
</g>
<!-- 3027383397296 -->
<g id="node10" class="node"><title>3027383397296</title>
<polygon fill="black" stroke="black" points="234,-234 180,-234 180,-198 234,-198 234,-234"/>
</g>
<!-- 3027383398112 -->
<g id="node23" class="node"><title>3027383398112</title>
<ellipse fill="none" stroke="black" cx="297" cy="-224" rx="27" ry="27"/>
</g>
<!-- 3027383397296&#45;&gt;3027383398112 -->
<g id="edge32" class="edge"><title>3027383397296&#45;&gt;3027383398112</title>
<path fill="none" stroke="black" d="M234.403,-218.4C242.393,-219.127 251.311,-219.937 259.824,-220.711"/>
<polygon fill="black" stroke="black" points="259.643,-224.209 269.919,-221.629 260.277,-217.238 259.643,-224.209"/>
</g>
<!-- 3027383397968 -->
<g id="node11" class="node"><title>3027383397968</title>
<polygon fill="none" stroke="black" points="774,-358 720,-358 720,-322 774,-322 774,-358"/>
<text text-anchor="middle" x="747" y="-336.9" font-family="Times New Roman,serif" font-size="12.00">F</text>
</g>
<!-- 3027383398304 -->
<g id="node21" class="node"><title>3027383398304</title>
<ellipse fill="none" stroke="black" cx="837" cy="-239" rx="27" ry="27"/>
</g>
<!-- 3027383397968&#45;&gt;3027383398304 -->
<g id="edge8" class="edge"><title>3027383397968&#45;&gt;3027383398304</title>
<path fill="none" stroke="black" d="M763.733,-321.943C777.109,-306.591 796.528,-284.303 811.869,-266.696"/>
<polygon fill="black" stroke="black" points="814.664,-268.816 818.594,-258.977 809.386,-264.217 814.664,-268.816"/>
</g>
<!-- 3027383398160 -->
<g id="node12" class="node"><title>3027383398160</title>
<polygon fill="none" stroke="black" points="2214,-274 2160,-274 2160,-238 2214,-238 2214,-274"/>
<text text-anchor="middle" x="2187" y="-252.9" font-family="Times New Roman,serif" font-size="12.00">D</text>
</g>
<!-- 3027383398160&#45;&gt;3027383398304 -->
<g id="edge7" class="edge"><title>3027383398160&#45;&gt;3027383398304</title>
<path fill="none" stroke="black" d="M2159.76,-256C2125.04,-256 2061.93,-256 2008,-256 1016,-256 1016,-256 1016,-256 966.555,-256 909.732,-249.419 873.853,-244.446"/>
<polygon fill="black" stroke="black" points="874.26,-240.969 863.867,-243.029 873.276,-247.9 874.26,-240.969"/>
</g>
<!-- 3027383465488 -->
<g id="node13" class="node"><title>3027383465488</title>
<polygon fill="black" stroke="black" points="1494,-73 1440,-73 1440,-37 1494,-37 1494,-73"/>
</g>
<!-- 3027383395712 -->
<g id="node22" class="node"><title>3027383395712</title>
<ellipse fill="none" stroke="black" cx="1557" cy="-55" rx="27" ry="27"/>
</g>
<!-- 3027383465488&#45;&gt;3027383395712 -->
<g id="edge34" class="edge"><title>3027383465488&#45;&gt;3027383395712</title>
<path fill="none" stroke="black" d="M1494.4,-55C1502.39,-55 1511.31,-55 1519.82,-55"/>
<polygon fill="black" stroke="black" points="1519.92,-58.5001 1529.92,-55 1519.92,-51.5001 1519.92,-58.5001"/>
</g>
<!-- 3027383465680 -->
<g id="node14" class="node"><title>3027383465680</title>
<polygon fill="black" stroke="black" points="1134,-219 1080,-219 1080,-183 1134,-183 1134,-219"/>
</g>
<!-- 3027383396048 -->
<g id="node27" class="node"><title>3027383396048</title>
<ellipse fill="none" stroke="black" cx="1197" cy="-201" rx="27" ry="27"/>
</g>
<!-- 3027383465680&#45;&gt;3027383396048 -->
<g id="edge27" class="edge"><title>3027383465680&#45;&gt;3027383396048</title>
<path fill="none" stroke="black" d="M1134.4,-201C1142.39,-201 1151.31,-201 1159.82,-201"/>
<polygon fill="black" stroke="black" points="1159.92,-204.5 1169.92,-201 1159.92,-197.5 1159.92,-204.5"/>
</g>
<!-- 3027383395664 -->
<g id="node15" class="node"><title>3027383395664</title>
<polygon fill="none" stroke="black" points="1314,-174 1260,-174 1260,-138 1314,-138 1314,-174"/>
<text text-anchor="middle" x="1287" y="-152.9" font-family="Times New Roman,serif" font-size="12.00">E</text>
</g>
<!-- 3027383395664&#45;&gt;3027383381920 -->
<g id="edge3" class="edge"><title>3027383395664&#45;&gt;3027383381920</title>
<path fill="none" stroke="black" d="M1303.73,-137.943C1317.11,-122.591 1336.53,-100.303 1351.87,-82.6955"/>
<polygon fill="black" stroke="black" points="1354.66,-84.8158 1358.59,-74.977 1349.39,-80.2174 1354.66,-84.8158"/>
</g>
<!-- 3027383467600 -->
<g id="node16" class="node"><title>3027383467600</title>
<polygon fill="black" stroke="black" points="2034,-185 1980,-185 1980,-149 2034,-149 2034,-185"/>
</g>
<!-- 3027383467984 -->
<g id="node30" class="node"><title>3027383467984</title>
<ellipse fill="none" stroke="black" cx="2097" cy="-190" rx="27" ry="27"/>
</g>
<!-- 3027383467600&#45;&gt;3027383467984 -->
<g id="edge36" class="edge"><title>3027383467600&#45;&gt;3027383467984</title>
<path fill="none" stroke="black" d="M2034.4,-173.901C2042.63,-176.05 2051.83,-178.456 2060.57,-180.74"/>
<polygon fill="black" stroke="black" points="2059.96,-184.199 2070.52,-183.341 2061.73,-177.426 2059.96,-184.199"/>
</g>
<!-- 3027383466688 -->
<g id="node17" class="node"><title>3027383466688</title>
<ellipse fill="green" stroke="black" cx="1197" cy="-55" rx="27" ry="27"/>
<text text-anchor="middle" x="1197" y="-51.9" font-family="Times New Roman,serif" font-size="12.00">1</text>
</g>
<!-- 3027383466688&#45;&gt;3027383466304 -->
<g id="edge13" class="edge"><title>3027383466688&#45;&gt;3027383466304</title>
<path fill="none" stroke="black" d="M1224.4,-55C1232.39,-55 1241.31,-55 1249.82,-55"/>
<polygon fill="black" stroke="black" points="1249.92,-58.5001 1259.92,-55 1249.92,-51.5001 1249.92,-58.5001"/>
</g>
<!-- 3027383395760&#45;&gt;3027383396000 -->
<g id="edge9" class="edge"><title>3027383395760&#45;&gt;3027383396000</title>
<path fill="none" stroke="black" d="M1712.81,-42.93C1679.5,-26.7399 1615.73,-0 1558,-0 206,-0 206,-0 206,-0 126.421,-0 66.9516,-89.7079 41.5515,-136.022"/>
<polygon fill="black" stroke="black" points="38.4161,-134.464 36.7915,-144.933 44.5904,-137.762 38.4161,-134.464"/>
</g>
<!-- 3027383395760&#45;&gt;3027383396192 -->
<g id="edge10" class="edge"><title>3027383395760&#45;&gt;3027383396192</title>
<path fill="none" stroke="black" d="M1760.21,-68.8788C1769.59,-74.7462 1780.75,-81.7202 1791.19,-88.2431"/>
<polygon fill="black" stroke="black" points="1789.4,-91.25 1799.73,-93.582 1793.11,-85.314 1789.4,-91.25"/>
</g>
<!-- 3027383397632&#45;&gt;3027383397968 -->
<g id="edge12" class="edge"><title>3027383397632&#45;&gt;3027383397968</title>
<path fill="none" stroke="black" d="M680.206,-298.879C689.594,-304.746 700.752,-311.72 711.189,-318.243"/>
<polygon fill="black" stroke="black" points="709.396,-321.25 719.731,-323.582 713.106,-315.314 709.396,-321.25"/>
</g>
<!-- 3027383397632&#45;&gt;3027383398160 -->
<g id="edge11" class="edge"><title>3027383397632&#45;&gt;3027383398160</title>
<path fill="none" stroke="black" d="M683.92,-287.133C718.554,-289.794 781.851,-294 836,-294 836,-294 836,-294 2008,-294 2058.04,-294 2114.29,-279.458 2149.91,-268.365"/>
<polygon fill="black" stroke="black" points="2151.37,-271.574 2159.83,-265.199 2149.24,-264.905 2151.37,-271.574"/>
</g>
<!-- 3027383396240&#45;&gt;3027383397296 -->
<g id="edge14" class="edge"><title>3027383396240&#45;&gt;3027383397296</title>
<path fill="none" stroke="black" d="M140.662,-176.649C149.958,-182.247 160.93,-188.855 171.201,-195.042"/>
<polygon fill="black" stroke="black" points="169.616,-198.172 179.988,-200.334 173.227,-192.176 169.616,-198.172"/>
</g>
<!-- 3027383398304&#45;&gt;3027383464576 -->
<g id="edge15" class="edge"><title>3027383398304&#45;&gt;3027383464576</title>
<path fill="none" stroke="black" d="M862.513,-229.808C871.119,-226.58 880.971,-222.886 890.306,-219.385"/>
<polygon fill="black" stroke="black" points="891.638,-222.624 899.772,-215.835 889.18,-216.07 891.638,-222.624"/>
</g>
<!-- 3027383395712&#45;&gt;3027383396336 -->
<g id="edge16" class="edge"><title>3027383395712&#45;&gt;3027383396336</title>
<path fill="none" stroke="black" d="M1584.4,-55C1592.39,-55 1601.31,-55 1609.82,-55"/>
<polygon fill="black" stroke="black" points="1609.92,-58.5001 1619.92,-55 1609.92,-51.5001 1609.92,-58.5001"/>
</g>
<!-- 3027383398112&#45;&gt;3027383395904 -->
<g id="edge17" class="edge"><title>3027383398112&#45;&gt;3027383395904</title>
<path fill="none" stroke="black" d="M323.453,-229.496C331.788,-231.295 341.21,-233.33 350.165,-235.263"/>
<polygon fill="black" stroke="black" points="349.48,-238.696 359.993,-237.385 350.957,-231.853 349.48,-238.696"/>
</g>
<!-- 3027383397728&#45;&gt;3027383464000 -->
<g id="edge18" class="edge"><title>3027383397728&#45;&gt;3027383464000</title>
<path fill="none" stroke="black" d="M503.927,-256.946C512.089,-257.874 521.256,-258.915 529.989,-259.908"/>
<polygon fill="black" stroke="black" points="529.623,-263.389 539.954,-261.04 530.413,-256.433 529.623,-263.389"/>
</g>
<!-- 3027383464816&#45;&gt;3027383465680 -->
<g id="edge19" class="edge"><title>3027383464816&#45;&gt;3027383465680</title>
<path fill="none" stroke="black" d="M1044.4,-201C1052.39,-201 1061.31,-201 1069.82,-201"/>
<polygon fill="black" stroke="black" points="1069.92,-204.5 1079.92,-201 1069.92,-197.5 1069.92,-204.5"/>
</g>
<!-- 3027383381920&#45;&gt;3027383465488 -->
<g id="edge20" class="edge"><title>3027383381920&#45;&gt;3027383465488</title>
<path fill="none" stroke="black" d="M1404.4,-55C1412.39,-55 1421.31,-55 1429.82,-55"/>
<polygon fill="black" stroke="black" points="1429.92,-58.5001 1439.92,-55 1429.92,-51.5001 1429.92,-58.5001"/>
</g>
<!-- 3027383396048&#45;&gt;3027383466496 -->
<g id="edge22" class="edge"><title>3027383396048&#45;&gt;3027383466496</title>
<path fill="none" stroke="black" d="M1223.93,-203.652C1232.09,-204.486 1241.26,-205.424 1249.99,-206.317"/>
<polygon fill="black" stroke="black" points="1249.65,-209.801 1259.95,-207.336 1250.36,-202.837 1249.65,-209.801"/>
</g>
<!-- 3027383396048&#45;&gt;3027383395664 -->
<g id="edge21" class="edge"><title>3027383396048&#45;&gt;3027383395664</title>
<path fill="none" stroke="black" d="M1221.58,-188.941C1230.53,-184.364 1240.93,-179.046 1250.73,-174.036"/>
<polygon fill="black" stroke="black" points="1252.56,-177.03 1259.87,-169.361 1249.38,-170.797 1252.56,-177.03"/>
</g>
<!-- 3027383395568&#45;&gt;3027383397920 -->
<g id="edge23" class="edge"><title>3027383395568&#45;&gt;3027383397920</title>
<path fill="none" stroke="black" d="M233.927,-311.357C242.089,-312.099 251.256,-312.932 259.989,-313.726"/>
<polygon fill="black" stroke="black" points="259.678,-317.212 269.954,-314.632 260.312,-310.241 259.678,-317.212"/>
</g>
<!-- 3027383467696&#45;&gt;3027383467600 -->
<g id="edge24" class="edge"><title>3027383467696&#45;&gt;3027383467600</title>
<path fill="none" stroke="black" d="M1941.58,-134.059C1950.53,-138.636 1960.93,-143.954 1970.73,-148.964"/>
<polygon fill="black" stroke="black" points="1969.38,-152.203 1979.87,-153.639 1972.56,-145.97 1969.38,-152.203"/>
</g>
<!-- 3027383467984&#45;&gt;3027383398160 -->
<g id="edge25" class="edge"><title>3027383467984&#45;&gt;3027383398160</title>
<path fill="none" stroke="black" d="M2119.3,-205.977C2129.62,-213.713 2142.22,-223.168 2153.69,-231.767"/>
<polygon fill="black" stroke="black" points="2151.69,-234.64 2161.79,-237.84 2155.89,-229.04 2151.69,-234.64"/>
</g>
<!-- 3027383467312&#45;&gt;3027383397968 -->
<g id="edge26" class="edge"><title>3027383467312&#45;&gt;3027383397968</title>
<path fill="none" stroke="black" d="M414.035,-326.091C476.912,-328.725 637.192,-335.441 709.561,-338.473"/>
<polygon fill="black" stroke="black" points="709.441,-341.971 719.579,-338.893 709.734,-334.977 709.441,-341.971"/>
</g>
</g>
</svg>
